<svg xmlns="http://www.w3.org/2000/svg" viewBox="0 0 600 280" role="img" aria-labelledby="allSvcTitle allSvcDesc">
  <title id="allSvcTitle">서비스 카탈로그</title>
  <desc id="allSvcDesc">서비스 카드가 격자로 정렬된 모자이크 일러스트</desc>
  <defs>
    <linearGradient id="svcBg" x1="0" y1="0" x2="1" y2="1">
      <stop offset="0%" stop-color="#faf9f5"/>
      <stop offset="100%" stop-color="#f5f4ec"/>
    </linearGradient>
  </defs>
  <rect width="600" height="280" rx="14" fill="url(#svcBg)"/>

  <g transform="translate(40 40)">
    <!-- row 1 -->
    <g>
      <rect width="160" height="60" rx="10" fill="#ffffff" stroke="#e8e6dc"/>
      <circle cx="28" cy="30" r="14" fill="#c96442"/>
      <path d="M22 30 L26 34 L34 26" stroke="#ffffff" stroke-width="2.4" fill="none" stroke-linecap="round" stroke-linejoin="round"/>
      <rect x="52" y="20" width="80" height="6" rx="3" fill="#3d3929"/>
      <rect x="52" y="32" width="60" height="5" rx="2.5" fill="#97948a"/>
    </g>
    <g transform="translate(180 0)">
      <rect width="160" height="60" rx="10" fill="#ffffff" stroke="#e8e6dc"/>
      <circle cx="28" cy="30" r="14" fill="#fdf4ee" stroke="#c96442" stroke-width="1.5"/>
      <path d="M22 30 Q28 22 34 30" stroke="#c96442" stroke-width="2" fill="none" stroke-linecap="round"/>
      <circle cx="28" cy="32" r="2" fill="#c96442"/>
      <rect x="52" y="20" width="70" height="6" rx="3" fill="#3d3929"/>
      <rect x="52" y="32" width="80" height="5" rx="2.5" fill="#97948a"/>
    </g>
    <g transform="translate(360 0)">
      <rect width="160" height="60" rx="10" fill="#ffffff" stroke="#e8e6dc"/>
      <circle cx="28" cy="30" r="14" fill="#fae5d3"/>
      <rect x="22" y="24" width="12" height="3" rx="1.5" fill="#c96442"/>
      <rect x="22" y="29" width="9"  height="3" rx="1.5" fill="#c96442"/>
      <rect x="22" y="34" width="11" height="3" rx="1.5" fill="#c96442"/>
      <rect x="52" y="20" width="84" height="6" rx="3" fill="#3d3929"/>
      <rect x="52" y="32" width="64" height="5" rx="2.5" fill="#97948a"/>
    </g>

    <!-- row 2 -->
    <g transform="translate(0 80)">
      <rect width="160" height="60" rx="10" fill="#ffffff" stroke="#e8e6dc"/>
      <circle cx="28" cy="30" r="14" fill="#fdf4ee"/>
      <path d="M22 33 L26 28 L30 31 L34 24" stroke="#c96442" stroke-width="2" fill="none" stroke-linecap="round" stroke-linejoin="round"/>
      <rect x="52" y="20" width="74" height="6" rx="3" fill="#3d3929"/>
      <rect x="52" y="32" width="68" height="5" rx="2.5" fill="#97948a"/>
    </g>
    <g transform="translate(180 80)">
      <rect width="160" height="60" rx="10" fill="#c96442"/>
      <circle cx="28" cy="30" r="14" fill="#ffffff" opacity="0.2"/>
      <path d="M22 28 Q28 36 34 28 M28 22 L28 38" stroke="#ffffff" stroke-width="2" fill="none" stroke-linecap="round"/>
      <rect x="52" y="20" width="80" height="6" rx="3" fill="#ffffff"/>
      <rect x="52" y="32" width="58" height="5" rx="2.5" fill="#ffffff" opacity="0.7"/>
    </g>
    <g transform="translate(360 80)">
      <rect width="160" height="60" rx="10" fill="#ffffff" stroke="#e8e6dc"/>
      <circle cx="28" cy="30" r="14" fill="#fae5d3"/>
      <path d="M28 22 L30 30 L36 30 L31 34 L33 40 L28 36 L23 40 L25 34 L20 30 L26 30 Z" fill="#c96442"/>
      <rect x="52" y="20" width="68" height="6" rx="3" fill="#3d3929"/>
      <rect x="52" y="32" width="78" height="5" rx="2.5" fill="#97948a"/>
    </g>

    <!-- row 3 -->
    <g transform="translate(0 160)">
      <rect width="160" height="40" rx="10" fill="#ffffff" stroke="#e8e6dc"/>
      <circle cx="20" cy="20" r="6" fill="#c96442" opacity="0.7"/>
      <rect x="34" y="14" width="60" height="5" rx="2.5" fill="#3d3929"/>
      <rect x="34" y="22" width="44" height="4" rx="2" fill="#97948a"/>
    </g>
    <g transform="translate(180 160)">
      <rect width="160" height="40" rx="10" fill="#ffffff" stroke="#e8e6dc"/>
      <circle cx="20" cy="20" r="6" fill="#d98a6c"/>
      <rect x="34" y="14" width="50" height="5" rx="2.5" fill="#3d3929"/>
      <rect x="34" y="22" width="60" height="4" rx="2" fill="#97948a"/>
    </g>
    <g transform="translate(360 160)">
      <rect width="160" height="40" rx="10" fill="#ffffff" stroke="#e8e6dc"/>
      <circle cx="20" cy="20" r="6" fill="#fae5d3"/>
      <rect x="34" y="14" width="56" height="5" rx="2.5" fill="#3d3929"/>
      <rect x="34" y="22" width="38" height="4" rx="2" fill="#97948a"/>
    </g>
  </g>
</svg>
