<svg xmlns="http://www.w3.org/2000/svg" viewBox="0 0 320 200" role="img" aria-labelledby="axMktTitle axMktDesc">
  <title id="axMktTitle">AX Marketing Intelligence</title>
  <desc id="axMktDesc">AI가 마케팅 콘텐츠와 채널을 생성·최적화하는 모습</desc>
  <defs>
    <linearGradient id="axMktBg" x1="0" y1="0" x2="1" y2="1">
      <stop offset="0%" stop-color="#faf9f5"/>
      <stop offset="100%" stop-color="#f5f4ec"/>
    </linearGradient>
    <linearGradient id="axMktAccent" x1="0" y1="0" x2="1" y2="1">
      <stop offset="0%" stop-color="#d98a6c"/>
      <stop offset="100%" stop-color="#c96442"/>
    </linearGradient>
  </defs>
  <rect width="320" height="200" rx="12" fill="url(#axMktBg)"/>

  <!-- 좌측: 콘텐츠 카드 -->
  <g transform="translate(24 28)" font-family="system-ui,-apple-system,sans-serif">
    <rect width="120" height="144" rx="12" fill="#ffffff" stroke="#e8e6dc"/>
    <rect x="10" y="10" width="100" height="58" rx="8" fill="url(#axMktAccent)"/>
    <circle cx="38" cy="34" r="10" fill="#ffffff" opacity="0.55"/>
    <path d="M52 56 L70 38 L88 50 L100 30 L100 60 L18 60 Z" fill="#ffffff" opacity="0.32"/>
    <rect x="10" y="78"  width="80" height="6" rx="3" fill="#3d3929"/>
    <rect x="10" y="90"  width="100" height="4" rx="2" fill="#97948a"/>
    <rect x="10" y="100" width="68" height="4" rx="2" fill="#97948a"/>
    <rect x="10" y="116" width="56" height="20" rx="10" fill="#c96442"/>
    <text x="38" y="129" text-anchor="middle" fill="#ffffff" font-size="9" font-weight="700">CTA</text>
    <circle cx="100" cy="126" r="9" fill="#fdf4ee"/>
    <text x="100" y="129" text-anchor="middle" fill="#c96442" font-size="8" font-weight="700">A/B</text>
  </g>

  <!-- 우측: 채널 + 변형 -->
  <g transform="translate(186 28)" font-family="system-ui,-apple-system,sans-serif">
    <rect width="120" height="68" rx="10" fill="#ffffff" stroke="#e8e6dc"/>
    <rect x="12" y="12" width="50" height="6" rx="3" fill="#97948a"/>
    <text x="12" y="38" fill="#3d3929" font-size="14" font-weight="700">12 채널</text>
    <g transform="translate(12 46)">
      <rect width="20" height="12" rx="6" fill="#c96442"/>
      <rect x="22" width="28" height="12" rx="6" fill="#d98a6c"/>
      <rect x="52" width="22" height="12" rx="6" fill="#fae5d3"/>
      <rect x="76" width="18" height="12" rx="6" fill="#fdf4ee"/>
    </g>
  </g>

  <g transform="translate(186 108)">
    <rect width="120" height="68" rx="10" fill="#ffffff" stroke="#e8e6dc"/>
    <rect x="12" y="12" width="50" height="6" rx="3" fill="#97948a"/>
    <g transform="translate(12 24)">
      <rect width="22" height="16" rx="4" fill="#c96442"/>
      <rect x="26" width="22" height="16" rx="4" fill="#d98a6c"/>
      <rect x="52" width="22" height="16" rx="4" fill="#fae5d3"/>
      <rect x="78" width="22" height="16" rx="4" fill="#d98a6c" opacity="0.6"/>
      <rect width="22" height="16" rx="4" y="22" fill="#d98a6c" opacity="0.6"/>
      <rect x="26" width="22" height="16" rx="4" y="22" fill="#c96442" opacity="0.55"/>
      <rect x="52" width="22" height="16" rx="4" y="22" fill="#d98a6c"/>
      <rect x="78" width="22" height="16" rx="4" y="22" fill="#c96442"/>
    </g>
  </g>
</svg>
