<svg xmlns="http://www.w3.org/2000/svg" viewBox="0 0 320 200" role="img" aria-labelledby="ccbTitle ccbDesc">
  <title id="ccbTitle">AX Commerce Brain</title>
  <desc id="ccbDesc">AI 챗봇·리뷰·상품 추천이 결합된 이커머스 솔루션</desc>
  <defs>
    <linearGradient id="ccbBg" x1="0" y1="0" x2="1" y2="1">
      <stop offset="0%" stop-color="#faf9f5"/>
      <stop offset="100%" stop-color="#f5f4ec"/>
    </linearGradient>
  </defs>
  <rect width="320" height="200" rx="12" fill="url(#ccbBg)"/>

  <!-- 좌측: 챗봇 -->
  <g transform="translate(20 24)" font-family="system-ui,-apple-system,sans-serif">
    <rect width="148" height="152" rx="12" fill="#ffffff" stroke="#e8e6dc"/>
    <rect width="148" height="32" rx="12" fill="#c96442"/>
    <rect y="20" width="148" height="12" fill="#c96442"/>
    <circle cx="20" cy="16" r="7" fill="#ffffff"/>
    <path d="M16 16 L19 19 L25 13" stroke="#c96442" stroke-width="1.6" fill="none" stroke-linecap="round" stroke-linejoin="round"/>
    <text x="34" y="20" fill="#ffffff" font-size="9" font-weight="700">MaKIT Bot</text>
    <circle cx="134" cy="16" r="3" fill="#ffffff" opacity="0.85"/>
    <!-- bot bubble -->
    <g transform="translate(12 44)">
      <path d="M0 0 L88 0 Q98 0 98 10 L98 26 Q98 36 88 36 L14 36 L8 44 L10 36 Q0 36 0 26 Z"
            fill="#faf9f5" stroke="#e8e6dc"/>
      <rect x="10" y="10" width="76" height="4" rx="2" fill="#3d3929"/>
      <rect x="10" y="18" width="60" height="4" rx="2" fill="#97948a"/>
      <rect x="10" y="26" width="40" height="4" rx="2" fill="#97948a"/>
    </g>
    <!-- user bubble -->
    <g transform="translate(48 96)">
      <path d="M0 0 L86 0 Q86 0 86 10 L86 26 Q86 36 76 36 L10 36 Q0 36 0 26 Z"
            fill="#fdf4ee"/>
      <rect x="10" y="10" width="60" height="4" rx="2" fill="#c96442"/>
      <rect x="10" y="18" width="48" height="4" rx="2" fill="#c96442" opacity="0.6"/>
    </g>
  </g>

  <!-- 우측 상단: 리뷰 -->
  <g transform="translate(184 24)" font-family="system-ui,-apple-system,sans-serif">
    <rect width="118" height="68" rx="10" fill="#ffffff" stroke="#e8e6dc"/>
    <rect x="12" y="12" width="50" height="6" rx="3" fill="#97948a"/>
    <text x="12" y="38" fill="#3d3929" font-size="14" font-weight="700">4.8</text>
    <g transform="translate(38 28)" fill="#c96442">
      <path d="M6 0 L7.4 4 L12 4 L8.5 7 L9.8 11.5 L6 9 L2.2 11.5 L3.5 7 L0 4 L4.6 4 Z"/>
      <path transform="translate(14 0)" d="M6 0 L7.4 4 L12 4 L8.5 7 L9.8 11.5 L6 9 L2.2 11.5 L3.5 7 L0 4 L4.6 4 Z"/>
      <path transform="translate(28 0)" d="M6 0 L7.4 4 L12 4 L8.5 7 L9.8 11.5 L6 9 L2.2 11.5 L3.5 7 L0 4 L4.6 4 Z"/>
      <path transform="translate(42 0)" d="M6 0 L7.4 4 L12 4 L8.5 7 L9.8 11.5 L6 9 L2.2 11.5 L3.5 7 L0 4 L4.6 4 Z"/>
      <path transform="translate(56 0)" fill="#e8e6dc" d="M6 0 L7.4 4 L12 4 L8.5 7 L9.8 11.5 L6 9 L2.2 11.5 L3.5 7 L0 4 L4.6 4 Z"/>
    </g>
    <rect x="12" y="50" width="94" height="8" rx="4" fill="#f5f4ec"/>
    <rect x="12" y="50" width="78" height="8" rx="4" fill="#c96442"/>
  </g>

  <!-- 우측 하단: 추천 -->
  <g transform="translate(184 100)" font-family="system-ui,-apple-system,sans-serif">
    <rect width="118" height="76" rx="10" fill="#ffffff" stroke="#e8e6dc"/>
    <rect x="10" y="10" width="46" height="46" rx="8" fill="#fdf4ee"/>
    <circle cx="33" cy="33" r="14" fill="#c96442" opacity="0.18"/>
    <path d="M27 33 L33 39 L41 27" stroke="#c96442" stroke-width="2" fill="none" stroke-linecap="round" stroke-linejoin="round"/>
    <rect x="62" y="14" width="46" height="6" rx="3" fill="#3d3929"/>
    <rect x="62" y="24" width="34" height="5" rx="2.5" fill="#97948a"/>
    <text x="62" y="46" fill="#c96442" font-size="11" font-weight="700">₩29,800</text>
    <rect x="10" y="62" width="98" height="8" rx="4" fill="#fae5d3"/>
  </g>
</svg>
