<svg xmlns="http://www.w3.org/2000/svg" viewBox="0 0 320 200" role="img" aria-labelledby="ccbTitle ccbDesc">
  <title id="ccbTitle">AX Commerce Brain</title>
  <desc id="ccbDesc">AI 챗봇·리뷰 별점·상품 추천이 결합된 이커머스 솔루션</desc>
  <defs>
    <linearGradient id="ccbBg" x1="0" y1="0" x2="1" y2="1">
      <stop offset="0%" stop-color="#eff6ff"/>
      <stop offset="100%" stop-color="#ffffff"/>
    </linearGradient>
  </defs>
  <rect width="320" height="200" rx="12" fill="url(#ccbBg)"/>

  <!-- 좌측: 챗봇 대화 패널 -->
  <g transform="translate(20 24)">
    <rect width="148" height="152" rx="12" fill="#ffffff" stroke="#e6e6e6" stroke-width="1.5"/>
    <!-- header -->
    <rect width="148" height="28" rx="12" fill="#2563eb"/>
    <rect y="16" width="148" height="12" fill="#2563eb"/>
    <circle cx="18" cy="14" r="6" fill="#ffffff"/>
    <path d="M14 14 L18 18 L24 11" stroke="#2563eb" stroke-width="1.6" fill="none" stroke-linecap="round" stroke-linejoin="round"/>
    <text x="32" y="18" fill="#ffffff" font-family="system-ui,-apple-system,sans-serif" font-size="9" font-weight="700">MaKIT Bot</text>
    <circle cx="134" cy="14" r="3" fill="#86efac"/>
    <!-- bot bubble -->
    <g transform="translate(12 38)">
      <path d="M0 0 L88 0 Q98 0 98 10 L98 26 Q98 36 88 36 L14 36 L8 44 L10 36 L10 36 Q0 36 0 26 Z"
            fill="#fafafa" stroke="#e6e6e6" stroke-width="1"/>
      <rect x="10" y="10" width="76" height="4" rx="2" fill="#1a1a1a"/>
      <rect x="10" y="18" width="60" height="4" rx="2" fill="#a3a3a3"/>
      <rect x="10" y="26" width="40" height="4" rx="2" fill="#a3a3a3"/>
    </g>
    <!-- user bubble -->
    <g transform="translate(48 90)">
      <path d="M0 0 L86 0 Q86 0 86 10 L86 26 Q86 36 76 36 L10 36 Q0 36 0 26 Z"
            fill="#dce1f9"/>
      <rect x="10" y="10" width="60" height="4" rx="2" fill="#334bfa"/>
      <rect x="10" y="18" width="48" height="4" rx="2" fill="#334bfa" opacity="0.6"/>
    </g>
  </g>

  <!-- 우측 상단: 리뷰 별점 -->
  <g transform="translate(184 24)">
    <rect width="118" height="68" rx="10" fill="#ffffff" stroke="#e6e6e6" stroke-width="1.5"/>
    <rect x="12" y="12" width="50" height="6" rx="3" fill="#a3a3a3"/>
    <text x="12" y="38" fill="#1a1a1a" font-family="system-ui,-apple-system,sans-serif" font-size="14" font-weight="700">4.8</text>
    <g transform="translate(38 28)" fill="#fbbf24">
      <path d="M6 0 L7.4 4 L12 4 L8.5 7 L9.8 11.5 L6 9 L2.2 11.5 L3.5 7 L0 4 L4.6 4 Z"/>
      <path transform="translate(14 0)" d="M6 0 L7.4 4 L12 4 L8.5 7 L9.8 11.5 L6 9 L2.2 11.5 L3.5 7 L0 4 L4.6 4 Z"/>
      <path transform="translate(28 0)" d="M6 0 L7.4 4 L12 4 L8.5 7 L9.8 11.5 L6 9 L2.2 11.5 L3.5 7 L0 4 L4.6 4 Z"/>
      <path transform="translate(42 0)" d="M6 0 L7.4 4 L12 4 L8.5 7 L9.8 11.5 L6 9 L2.2 11.5 L3.5 7 L0 4 L4.6 4 Z"/>
      <path transform="translate(56 0)" fill="#e6e6e6" d="M6 0 L7.4 4 L12 4 L8.5 7 L9.8 11.5 L6 9 L2.2 11.5 L3.5 7 L0 4 L4.6 4 Z"/>
    </g>
    <rect x="12" y="50" width="94" height="8" rx="4" fill="#e6e6e6"/>
    <rect x="12" y="50" width="78" height="8" rx="4" fill="#fbbf24"/>
  </g>

  <!-- 우측 하단: 상품 추천 카드 -->
  <g transform="translate(184 100)">
    <rect width="118" height="76" rx="10" fill="#ffffff" stroke="#e6e6e6" stroke-width="1.5"/>
    <rect x="10" y="10" width="46" height="46" rx="8" fill="#eff6ff"/>
    <circle cx="33" cy="33" r="14" fill="#2563eb" opacity="0.25"/>
    <path d="M27 33 L33 39 L41 27" stroke="#2563eb" stroke-width="2" fill="none" stroke-linecap="round" stroke-linejoin="round"/>
    <rect x="62" y="14" width="46" height="6" rx="3" fill="#1a1a1a"/>
    <rect x="62" y="24" width="34" height="5" rx="2.5" fill="#a3a3a3"/>
    <text x="62" y="44" fill="#0f7134" font-family="system-ui,-apple-system,sans-serif" font-size="11" font-weight="700">₩29,800</text>
    <rect x="10" y="62" width="98" height="8" rx="4" fill="#d7efdc"/>
  </g>
</svg>
