<svg xmlns="http://www.w3.org/2000/svg" viewBox="0 0 480 320" role="img" aria-labelledby="feat2Title feat2Desc">
  <title id="feat2Title">AX Marketing Intelligence — 검색광고·SEO·AEO·미디어 분석</title>
  <desc id="feat2Desc">검색·SEO·AEO·미디어 4채널이 분석되어 퍼포먼스 차트로 통합되는 모습</desc>
  <defs>
    <linearGradient id="f2Bg" x1="0" y1="0" x2="1" y2="1">
      <stop offset="0%" stop-color="#eff6ff"/>
      <stop offset="100%" stop-color="#ffffff"/>
    </linearGradient>
  </defs>
  <rect width="480" height="320" rx="14" fill="url(#f2Bg)"/>

  <!-- 좌측 상단: 채널 4종 칩 -->
  <g transform="translate(36 36)">
    <text x="0" y="-6" fill="#737373" font-family="system-ui,-apple-system,sans-serif" font-size="10" font-weight="600" letter-spacing="0.5">CHANNELS</text>
    <g>
      <rect width="80" height="32" rx="16" fill="#ffffff" stroke="#e6e6e6" stroke-width="1.5"/>
      <circle cx="18" cy="16" r="7" fill="#dce1f9"/>
      <circle cx="18" cy="14" r="3" fill="none" stroke="#334bfa" stroke-width="1.5"/>
      <line x1="20" y1="16" x2="22.5" y2="18.5" stroke="#334bfa" stroke-width="1.5" stroke-linecap="round"/>
      <text x="30" y="20" fill="#1a1a1a" font-family="system-ui,-apple-system,sans-serif" font-size="10" font-weight="600">검색광고</text>
    </g>
    <g transform="translate(92 0)">
      <rect width="62" height="32" rx="16" fill="#ffffff" stroke="#e6e6e6" stroke-width="1.5"/>
      <text x="14" y="20" fill="#1a1a1a" font-family="system-ui,-apple-system,sans-serif" font-size="10" font-weight="700">SEO</text>
      <path d="M40 14 L46 14 L46 20" stroke="#0f7134" stroke-width="1.5" fill="none"/>
      <path d="M40 22 L46 14" stroke="#0f7134" stroke-width="1.5" fill="none" stroke-linecap="round"/>
    </g>
    <g transform="translate(166 0)">
      <rect width="62" height="32" rx="16" fill="#ffffff" stroke="#e6e6e6" stroke-width="1.5"/>
      <text x="14" y="20" fill="#1a1a1a" font-family="system-ui,-apple-system,sans-serif" font-size="10" font-weight="700">AEO</text>
      <circle cx="46" cy="16" r="5" fill="#fef3c7"/>
      <text x="46" y="19" text-anchor="middle" fill="#92400e" font-family="system-ui,-apple-system,sans-serif" font-size="7" font-weight="700">A</text>
    </g>
    <g transform="translate(0 44)">
      <rect width="80" height="32" rx="16" fill="#ffffff" stroke="#e6e6e6" stroke-width="1.5"/>
      <rect x="12" y="10" width="14" height="12" rx="2" fill="#fee2e2"/>
      <path d="M16 14 L22 14 M16 18 L20 18" stroke="#991b1b" stroke-width="1.4" stroke-linecap="round"/>
      <text x="32" y="20" fill="#1a1a1a" font-family="system-ui,-apple-system,sans-serif" font-size="10" font-weight="600">미디어</text>
    </g>
    <g transform="translate(92 44)">
      <rect width="136" height="32" rx="16" fill="#2563eb"/>
      <path d="M16 12 L24 16 L16 20 Z" fill="#ffffff"/>
      <text x="32" y="20" fill="#ffffff" font-family="system-ui,-apple-system,sans-serif" font-size="10" font-weight="700">콘텐츠 자동 최적화</text>
    </g>
  </g>

  <!-- 우측: 퍼포먼스 통합 대시보드 -->
  <g transform="translate(264 36)">
    <rect width="180" height="248" rx="12" fill="#ffffff" stroke="#e6e6e6" stroke-width="1.5"/>
    <rect x="14" y="14" width="80" height="6" rx="3" fill="#a3a3a3"/>
    <text x="14" y="40" fill="#1a1a1a" font-family="system-ui,-apple-system,sans-serif" font-size="20" font-weight="700">3.2x ROI</text>
    <text x="14" y="54" fill="#0f7134" font-family="system-ui,-apple-system,sans-serif" font-size="9" font-weight="600">▲ 캠페인 평균 대비</text>

    <!-- mini chart -->
    <g transform="translate(14 70)">
      <line x1="0" y1="60" x2="152" y2="60" stroke="#e6e6e6"/>
      <line x1="0" y1="40" x2="152" y2="40" stroke="#e6e6e6" stroke-dasharray="2 3"/>
      <line x1="0" y1="20" x2="152" y2="20" stroke="#e6e6e6" stroke-dasharray="2 3"/>
      <line x1="0" y1="0"  x2="152" y2="0"  stroke="#e6e6e6" stroke-dasharray="2 3"/>
      <!-- search ads -->
      <path d="M0 50 L24 44 L48 38 L72 30 L96 22 L120 14 L144 10"
            stroke="#2563eb" stroke-width="2" fill="none" stroke-linecap="round" stroke-linejoin="round"/>
      <!-- SEO -->
      <path d="M0 56 L24 52 L48 50 L72 44 L96 40 L120 34 L144 26"
            stroke="#0f7134" stroke-width="2" fill="none" stroke-linecap="round" stroke-linejoin="round"/>
      <!-- media -->
      <path d="M0 58 L24 56 L48 54 L72 50 L96 46 L120 42 L144 36"
            stroke="#92400e" stroke-width="2" fill="none" stroke-linecap="round" stroke-linejoin="round" opacity="0.7"/>
    </g>

    <!-- legend -->
    <g transform="translate(14 144)">
      <circle cx="4" cy="4" r="4" fill="#2563eb"/>
      <text x="14" y="8" fill="#1a1a1a" font-family="system-ui,-apple-system,sans-serif" font-size="9">검색광고</text>
      <circle cx="62" cy="4" r="4" fill="#0f7134"/>
      <text x="72" y="8" fill="#1a1a1a" font-family="system-ui,-apple-system,sans-serif" font-size="9">SEO</text>
      <circle cx="104" cy="4" r="4" fill="#92400e"/>
      <text x="114" y="8" fill="#1a1a1a" font-family="system-ui,-apple-system,sans-serif" font-size="9">미디어</text>
    </g>

    <!-- KPI mini cards -->
    <g transform="translate(14 168)">
      <rect width="74" height="62" rx="10" fill="#fafafa"/>
      <text x="10" y="22" fill="#737373" font-family="system-ui,-apple-system,sans-serif" font-size="8" font-weight="600">CTR</text>
      <text x="10" y="42" fill="#1a1a1a" font-family="system-ui,-apple-system,sans-serif" font-size="14" font-weight="700">8.6%</text>
      <text x="10" y="55" fill="#0f7134" font-family="system-ui,-apple-system,sans-serif" font-size="8">▲ 1.4</text>
    </g>
    <g transform="translate(94 168)">
      <rect width="72" height="62" rx="10" fill="#fafafa"/>
      <text x="10" y="22" fill="#737373" font-family="system-ui,-apple-system,sans-serif" font-size="8" font-weight="600">CPA</text>
      <text x="10" y="42" fill="#1a1a1a" font-family="system-ui,-apple-system,sans-serif" font-size="14" font-weight="700">₩1.2k</text>
      <text x="10" y="55" fill="#0f7134" font-family="system-ui,-apple-system,sans-serif" font-size="8">▼ 32%</text>
    </g>
  </g>

  <!-- AI badge floating -->
  <g transform="translate(206 252)">
    <circle r="22" fill="#ffffff" stroke="#e6e6e6"/>
    <circle r="14" fill="#eff6ff"/>
    <path d="M-6 0 Q0 -8 6 0 Q0 8 -6 0 Z" fill="#2563eb"/>
  </g>
</svg>
