<svg xmlns="http://www.w3.org/2000/svg" viewBox="0 0 600 400" role="img" aria-labelledby="indexHeroTitle indexHeroDesc">
  <title id="indexHeroTitle">AX 마케팅 플랫폼 대시보드</title>
  <desc id="indexHeroDesc">실시간 마케팅 데이터와 AI 인사이트가 통합된 대시보드의 추상 일러스트</desc>
  <defs>
    <linearGradient id="indexGrad1" x1="0" y1="0" x2="1" y2="1">
      <stop offset="0%" stop-color="#2563eb" stop-opacity="0.18"/>
      <stop offset="100%" stop-color="#4f46e5" stop-opacity="0.04"/>
    </linearGradient>
    <linearGradient id="indexGrad2" x1="0" y1="0" x2="0" y2="1">
      <stop offset="0%" stop-color="#2563eb"/>
      <stop offset="100%" stop-color="#1d4ed8"/>
    </linearGradient>
  </defs>

  <!-- background subtle field -->
  <rect width="600" height="400" fill="url(#indexGrad1)" rx="14"/>

  <!-- main dashboard card -->
  <g transform="translate(60 60)">
    <rect width="480" height="280" rx="14" fill="#ffffff" stroke="#e6e6e6" stroke-width="1.5"/>
    <!-- top bar -->
    <circle cx="22" cy="22" r="5" fill="#fee2e2"/>
    <circle cx="42" cy="22" r="5" fill="#fef3c7"/>
    <circle cx="62" cy="22" r="5" fill="#d7efdc"/>
    <line x1="0" y1="44" x2="480" y2="44" stroke="#e6e6e6" stroke-width="1"/>

    <!-- KPI cards row -->
    <g transform="translate(20 64)">
      <rect width="130" height="68" rx="10" fill="#fafafa" stroke="#e6e6e6"/>
      <rect x="14" y="14" width="40" height="6" rx="3" fill="#a3a3a3"/>
      <rect x="14" y="28" width="70" height="14" rx="3" fill="#1a1a1a"/>
      <path d="M14 56 L34 50 L54 54 L74 44 L94 48 L114 38" stroke="#2563eb" stroke-width="2" fill="none" stroke-linecap="round" stroke-linejoin="round"/>
    </g>
    <g transform="translate(170 64)">
      <rect width="130" height="68" rx="10" fill="#fafafa" stroke="#e6e6e6"/>
      <rect x="14" y="14" width="40" height="6" rx="3" fill="#a3a3a3"/>
      <rect x="14" y="28" width="60" height="14" rx="3" fill="#1a1a1a"/>
      <g transform="translate(14 50)">
        <rect x="0"  y="6" width="10" height="12" rx="2" fill="#2563eb" opacity="0.4"/>
        <rect x="14" y="2" width="10" height="16" rx="2" fill="#2563eb" opacity="0.65"/>
        <rect x="28" y="0" width="10" height="18" rx="2" fill="#2563eb"/>
        <rect x="42" y="4" width="10" height="14" rx="2" fill="#2563eb" opacity="0.5"/>
        <rect x="56" y="2" width="10" height="16" rx="2" fill="#2563eb" opacity="0.7"/>
      </g>
    </g>
    <g transform="translate(320 64)">
      <rect width="140" height="68" rx="10" fill="url(#indexGrad2)"/>
      <rect x="14" y="14" width="46" height="6" rx="3" fill="#ffffff" opacity="0.6"/>
      <rect x="14" y="28" width="80" height="14" rx="3" fill="#ffffff"/>
      <text x="14" y="60" fill="#ffffff" opacity="0.85" font-family="system-ui,-apple-system,sans-serif" font-size="10" font-weight="600">▲ 24.8%</text>
    </g>

    <!-- chart -->
    <g transform="translate(20 152)">
      <rect width="440" height="108" rx="10" fill="#fafafa" stroke="#e6e6e6"/>
      <!-- grid -->
      <line x1="20" y1="24" x2="420" y2="24" stroke="#e6e6e6" stroke-dasharray="2 4"/>
      <line x1="20" y1="56" x2="420" y2="56" stroke="#e6e6e6" stroke-dasharray="2 4"/>
      <line x1="20" y1="88" x2="420" y2="88" stroke="#e6e6e6" stroke-dasharray="2 4"/>
      <!-- area chart -->
      <path d="M20 80 L70 70 L120 56 L170 60 L220 40 L270 48 L320 28 L370 36 L420 18 L420 96 L20 96 Z"
            fill="#2563eb" fill-opacity="0.12"/>
      <path d="M20 80 L70 70 L120 56 L170 60 L220 40 L270 48 L320 28 L370 36 L420 18"
            stroke="#2563eb" stroke-width="2" fill="none" stroke-linecap="round" stroke-linejoin="round"/>
      <!-- accent dot -->
      <circle cx="320" cy="28" r="5" fill="#ffffff" stroke="#2563eb" stroke-width="2"/>
    </g>
  </g>

  <!-- floating AI badge -->
  <g transform="translate(450 50)">
    <circle cx="40" cy="40" r="38" fill="#ffffff" stroke="#e6e6e6"/>
    <circle cx="40" cy="40" r="22" fill="#eff6ff"/>
    <path d="M30 40 Q40 26 50 40 Q40 54 30 40 Z" fill="#2563eb"/>
    <circle cx="40" cy="40" r="4" fill="#ffffff"/>
    <text x="40" y="74" text-anchor="middle" fill="#737373" font-family="system-ui,-apple-system,sans-serif" font-size="9" font-weight="600" letter-spacing="0.5">AI</text>
  </g>

  <!-- floating data nodes -->
  <g opacity="0.85">
    <circle cx="36"  cy="80"  r="4" fill="#2563eb"/>
    <circle cx="22"  cy="200" r="4" fill="#4f46e5"/>
    <circle cx="48"  cy="320" r="4" fill="#2563eb"/>
    <circle cx="568" cy="280" r="4" fill="#4f46e5"/>
    <circle cx="552" cy="356" r="4" fill="#2563eb"/>
  </g>
</svg>
