<svg xmlns="http://www.w3.org/2000/svg" viewBox="0 0 600 400" role="img" aria-labelledby="indexHeroTitle indexHeroDesc">
  <title id="indexHeroTitle">AX 마케팅 대시보드</title>
  <desc id="indexHeroDesc">실시간 KPI와 추세 차트를 통합한 대시보드 추상 일러스트</desc>
  <defs>
    <linearGradient id="indexBg" x1="0" y1="0" x2="1" y2="1">
      <stop offset="0%" stop-color="#faf9f5"/>
      <stop offset="100%" stop-color="#f5f4ec"/>
    </linearGradient>
  </defs>

  <rect width="600" height="400" rx="16" fill="url(#indexBg)"/>

  <g transform="translate(60 60)">
    <rect width="480" height="280" rx="14" fill="#ffffff" stroke="#e8e6dc" stroke-width="1.2"/>
    <!-- top bar -->
    <line x1="0" y1="44" x2="480" y2="44" stroke="#e8e6dc"/>
    <rect x="20" y="18" width="92" height="8" rx="4" fill="#3d3929"/>
    <rect x="396" y="14" width="64" height="16" rx="8" fill="#fdf4ee"/>
    <rect x="406" y="20" width="44" height="4" rx="2" fill="#c96442"/>

    <!-- KPI cards -->
    <g transform="translate(20 64)">
      <rect width="134" height="68" rx="10" fill="#faf9f5" stroke="#e8e6dc"/>
      <rect x="14" y="14" width="44" height="5" rx="2.5" fill="#97948a"/>
      <rect x="14" y="26" width="76" height="14" rx="3" fill="#3d3929"/>
      <path d="M14 56 L34 50 L54 54 L74 44 L94 48 L114 38" stroke="#c96442" stroke-width="2" fill="none" stroke-linecap="round" stroke-linejoin="round"/>
    </g>
    <g transform="translate(174 64)">
      <rect width="134" height="68" rx="10" fill="#faf9f5" stroke="#e8e6dc"/>
      <rect x="14" y="14" width="44" height="5" rx="2.5" fill="#97948a"/>
      <rect x="14" y="26" width="64" height="14" rx="3" fill="#3d3929"/>
      <g transform="translate(14 50)">
        <rect x="0"  y="6"  width="10" height="12" rx="2" fill="#fae5d3"/>
        <rect x="14" y="2"  width="10" height="16" rx="2" fill="#d98a6c"/>
        <rect x="28" y="0"  width="10" height="18" rx="2" fill="#c96442"/>
        <rect x="42" y="4"  width="10" height="14" rx="2" fill="#d98a6c"/>
        <rect x="56" y="2"  width="10" height="16" rx="2" fill="#c96442"/>
      </g>
    </g>
    <g transform="translate(328 64)">
      <rect width="132" height="68" rx="10" fill="#c96442"/>
      <rect x="14" y="14" width="48" height="5" rx="2.5" fill="#ffffff" opacity="0.55"/>
      <rect x="14" y="26" width="84" height="14" rx="3" fill="#ffffff"/>
      <rect x="14" y="50" width="48" height="6" rx="3" fill="#ffffff" opacity="0.7"/>
    </g>

    <!-- chart -->
    <g transform="translate(20 152)">
      <rect width="440" height="108" rx="10" fill="#faf9f5" stroke="#e8e6dc"/>
      <line x1="20" y1="24" x2="420" y2="24" stroke="#e8e6dc" stroke-dasharray="2 4"/>
      <line x1="20" y1="56" x2="420" y2="56" stroke="#e8e6dc" stroke-dasharray="2 4"/>
      <line x1="20" y1="88" x2="420" y2="88" stroke="#e8e6dc" stroke-dasharray="2 4"/>
      <path d="M20 80 L70 70 L120 56 L170 60 L220 40 L270 48 L320 28 L370 36 L420 18 L420 96 L20 96 Z"
            fill="#c96442" fill-opacity="0.10"/>
      <path d="M20 80 L70 70 L120 56 L170 60 L220 40 L270 48 L320 28 L370 36 L420 18"
            stroke="#c96442" stroke-width="2" fill="none" stroke-linecap="round" stroke-linejoin="round"/>
      <circle cx="320" cy="28" r="5" fill="#ffffff" stroke="#c96442" stroke-width="2"/>
    </g>
  </g>
</svg>
